<svg width="142" height="46" viewBox="0 0 142 46" fill="none" xmlns="http://www.w3.org/2000/svg">
<rect x="0.5" y="0.5" width="141" height="45" rx="6.5" fill="black"/>
<path d="M96.4723 22.0809V24.7156H94.773V26.4434H96.4723V32.3141C96.4723 34.3188 97.4054 35.1206 99.753 35.1206C100.166 35.1206 100.558 35.0729 100.902 35.0156V33.3069C100.608 33.3355 100.421 33.3546 100.097 33.3546C99.0458 33.3546 98.5841 32.8773 98.5841 31.7891V26.4434H100.902V24.7156H98.5841V22.0809H96.4723Z" fill="white"/>
<path d="M106.883 35.2638C110.006 35.2638 111.922 33.2305 111.922 29.8608C111.922 26.5102 109.996 24.4674 106.883 24.4674C103.759 24.4674 101.834 26.5102 101.834 29.8608C101.834 33.2305 103.749 35.2638 106.883 35.2638ZM106.883 33.4405C105.046 33.4405 104.014 32.1327 104.014 29.8608C104.014 27.608 105.046 26.2907 106.883 26.2907C108.71 26.2907 109.751 27.608 109.751 29.8608C109.751 32.1232 108.71 33.4405 106.883 33.4405Z" fill="white"/>
<path d="M113.56 35.0633H115.672V28.9253C115.672 27.4648 116.802 26.4816 118.403 26.4816C118.776 26.4816 119.405 26.5484 119.582 26.6057V24.5819C119.356 24.5247 118.953 24.496 118.639 24.496C117.244 24.496 116.055 25.2406 115.751 26.262H115.594V24.6679H113.56V35.0633Z" fill="white"/>
<path d="M124.825 26.2143C126.387 26.2143 127.409 27.2739 127.458 28.9062H122.055C122.173 27.2834 123.264 26.2143 124.825 26.2143ZM127.448 32.2568C127.055 33.0682 126.181 33.5169 124.904 33.5169C123.214 33.5169 122.124 32.3618 122.055 30.5386V30.424H129.609V29.7081C129.609 26.4434 127.811 24.4674 124.835 24.4674C121.82 24.4674 119.904 26.577 119.904 29.899C119.904 33.221 121.78 35.2638 124.845 35.2638C127.291 35.2638 129 34.1183 129.481 32.2568H127.448Z" fill="white"/>
<path d="M82.623 31.2244C82.7859 33.7771 84.9748 35.4096 88.2327 35.4096C91.7145 35.4096 93.8932 33.698 93.8932 30.9672C93.8932 28.8202 92.6512 27.6329 89.6376 26.9502L88.0189 26.5644C86.1049 26.129 85.3312 25.5453 85.3312 24.5262C85.3312 23.24 86.5325 22.399 88.3345 22.399C90.0449 22.399 91.2258 23.2202 91.4396 24.5361H93.6591C93.5267 22.1318 91.348 20.4399 88.365 20.4399C85.1581 20.4399 83.0201 22.1318 83.0201 24.6746C83.0201 26.7721 84.2316 28.0188 86.8888 28.6223L88.7824 29.0675C90.727 29.5128 91.5822 30.1658 91.5822 31.2541C91.5822 32.5206 90.2383 33.4407 88.4058 33.4407C86.4409 33.4407 85.0766 32.5799 84.8832 31.2244H82.623Z" fill="white"/>
<path d="M60.7464 24.496C59.2926 24.496 58.0353 25.2024 57.3871 26.3861H57.2299V24.6679H55.1966V38.519H57.3085V33.4883H57.4755C58.0353 34.586 59.2435 35.2352 60.766 35.2352C63.4672 35.2352 65.1862 33.1637 65.1862 29.8608C65.1862 26.5579 63.4672 24.496 60.7464 24.496ZM60.1472 33.3928C58.3791 33.3928 57.2692 32.0373 57.2692 29.8704C57.2692 27.6939 58.3791 26.3384 60.157 26.3384C61.9447 26.3384 63.0154 27.6653 63.0154 29.8608C63.0154 32.0659 61.9447 33.3928 60.1472 33.3928Z" fill="white"/>
<path d="M72.5759 24.496C71.1222 24.496 69.8649 25.2024 69.2166 26.3861H69.0594V24.6679H67.0262V38.519H69.138V33.4883H69.305C69.8649 34.586 71.0731 35.2352 72.5956 35.2352C75.2968 35.2352 77.0157 33.1637 77.0157 29.8608C77.0157 26.5579 75.2968 24.496 72.5759 24.496ZM71.9767 33.3928C70.2087 33.3928 69.0987 32.0373 69.0987 29.8704C69.0987 27.6939 70.2087 26.3384 71.9866 26.3384C73.7743 26.3384 74.8449 27.6653 74.8449 29.8608C74.8449 32.0659 73.7743 33.3928 71.9767 33.3928Z" fill="white"/>
<path d="M51.4076 35.0633H53.8306L48.5264 20.7862H46.0728L40.7686 35.0633H43.1102L44.4643 31.2739H50.0637L51.4076 35.0633ZM47.1825 23.3785H47.3556L49.4834 29.4138H45.0446L47.1825 23.3785Z" fill="white"/>
<path d="M42.1872 10.0176V16.905H44.7459C46.8578 16.905 48.0807 15.6401 48.0807 13.4398C48.0807 11.2729 46.848 10.0176 44.7459 10.0176H42.1872ZM43.2873 10.9913H44.6232C46.0916 10.9913 46.9609 11.8981 46.9609 13.4541C46.9609 15.034 46.1064 15.9313 44.6232 15.9313H43.2873V10.9913Z" fill="white"/>
<path d="M51.8261 17.0052C53.3879 17.0052 54.3456 15.9886 54.3456 14.3037C54.3456 12.6284 53.383 11.607 51.8261 11.607C50.2643 11.607 49.3017 12.6284 49.3017 14.3037C49.3017 15.9886 50.2594 17.0052 51.8261 17.0052ZM51.8261 16.0936C50.9077 16.0936 50.392 15.4397 50.392 14.3037C50.392 13.1773 50.9077 12.5186 51.8261 12.5186C52.7396 12.5186 53.2602 13.1773 53.2602 14.3037C53.2602 15.4349 52.7396 16.0936 51.8261 16.0936Z" fill="white"/>
<path d="M62.5013 11.7072H61.4453L60.4925 15.6735H60.4091L59.3089 11.7072H58.2972L57.1971 15.6735H57.1185L56.1608 11.7072H55.0901L56.5635 16.905H57.6489L58.749 13.0771H58.8325L59.9376 16.905H61.0328L62.5013 11.7072Z" fill="white"/>
<path d="M63.7173 16.905H64.7732V13.8646C64.7732 13.0532 65.2693 12.5473 66.0502 12.5473C66.8311 12.5473 67.2043 12.9625 67.2043 13.7978V16.905H68.2602V13.54C68.2602 12.3038 67.6021 11.607 66.4087 11.607C65.6032 11.607 65.0728 11.9554 64.8125 12.5329H64.7339V11.7072H63.7173V16.905Z" fill="white"/>
<path d="M69.9232 16.905H70.9791V9.67871H69.9232V16.905Z" fill="white"/>
<path d="M74.9504 17.0052C76.5122 17.0052 77.4699 15.9886 77.4699 14.3037C77.4699 12.6284 76.5073 11.607 74.9504 11.607C73.3886 11.607 72.426 12.6284 72.426 14.3037C72.426 15.9886 73.3837 17.0052 74.9504 17.0052ZM74.9504 16.0936C74.032 16.0936 73.5163 15.4397 73.5163 14.3037C73.5163 13.1773 74.032 12.5186 74.9504 12.5186C75.8639 12.5186 76.3845 13.1773 76.3845 14.3037C76.3845 15.4349 75.8639 16.0936 74.9504 16.0936Z" fill="white"/>
<path d="M80.6161 16.127C80.0415 16.127 79.624 15.8549 79.624 15.3872C79.624 14.929 79.958 14.6855 80.6947 14.6378L82.0011 14.5567V14.991C82.0011 15.6354 81.4117 16.127 80.6161 16.127ZM80.346 16.9909C81.0483 16.9909 81.6327 16.6949 81.952 16.1747H82.0355V16.905H83.0521V13.3539C83.0521 12.2561 82.2957 11.607 80.955 11.607C79.7419 11.607 78.8775 12.1797 78.7694 13.0723H79.791C79.9089 12.7048 80.3165 12.4948 80.9059 12.4948C81.6278 12.4948 82.0011 12.805 82.0011 13.3539V13.8025L80.5522 13.8837C79.2802 13.96 78.5632 14.4994 78.5632 15.4349C78.5632 16.3847 79.3146 16.9909 80.346 16.9909Z" fill="white"/>
<path d="M86.6354 16.9909C87.3721 16.9909 87.9958 16.652 88.315 16.084H88.3985V16.905H89.4103V9.67871H88.3543V12.5329H88.2757C87.986 11.9602 87.3672 11.6213 86.6354 11.6213C85.2848 11.6213 84.4155 12.6618 84.4155 14.3037C84.4155 15.9504 85.2749 16.9909 86.6354 16.9909ZM86.935 12.5425C87.819 12.5425 88.374 13.225 88.374 14.3085C88.374 15.3967 87.8239 16.0697 86.935 16.0697C86.0411 16.0697 85.5058 15.4063 85.5058 14.3037C85.5058 13.2107 86.046 12.5425 86.935 12.5425Z" fill="white"/>
<path d="M96.2576 17.0052C97.8194 17.0052 98.7771 15.9886 98.7771 14.3037C98.7771 12.6284 97.8145 11.607 96.2576 11.607C94.6958 11.607 93.7332 12.6284 93.7332 14.3037C93.7332 15.9886 94.6909 17.0052 96.2576 17.0052ZM96.2576 16.0936C95.3392 16.0936 94.8235 15.4397 94.8235 14.3037C94.8235 13.1773 95.3392 12.5186 96.2576 12.5186C97.1711 12.5186 97.6917 13.1773 97.6917 14.3037C97.6917 15.4349 97.1711 16.0936 96.2576 16.0936Z" fill="white"/>
<path d="M100.175 16.905H101.231V13.8646C101.231 13.0532 101.727 12.5473 102.508 12.5473C103.289 12.5473 103.662 12.9625 103.662 13.7978V16.905H104.718V13.54C104.718 12.3038 104.06 11.607 102.866 11.607C102.061 11.607 101.53 11.9554 101.27 12.5329H101.191V11.7072H100.175V16.905Z" fill="white"/>
<path d="M109.581 10.4137V11.7311H108.731V12.595H109.581V15.5303C109.581 16.5327 110.048 16.9336 111.221 16.9336C111.428 16.9336 111.624 16.9097 111.796 16.8811V16.0267C111.649 16.0411 111.555 16.0506 111.393 16.0506C110.868 16.0506 110.637 15.812 110.637 15.2678V12.595H111.796V11.7311H110.637V10.4137H109.581Z" fill="white"/>
<path d="M113.213 16.905H114.269V13.8694C114.269 13.0818 114.751 12.552 115.615 12.552C116.361 12.552 116.759 12.972 116.759 13.8025V16.905H117.815V13.5496C117.815 12.3134 117.113 11.6118 115.973 11.6118C115.168 11.6118 114.603 11.9602 114.343 12.5425H114.259V9.67871H113.213V16.905Z" fill="white"/>
<path d="M121.624 12.4804C122.405 12.4804 122.916 13.0102 122.941 13.8264H120.239C120.298 13.015 120.844 12.4804 121.624 12.4804ZM122.936 15.5017C122.739 15.9074 122.302 16.1317 121.664 16.1317C120.819 16.1317 120.274 15.5542 120.239 14.6426V14.5853H124.016V14.2273C124.016 12.595 123.117 11.607 121.629 11.607C120.122 11.607 119.164 12.6618 119.164 14.3228C119.164 15.9838 120.102 17.0052 121.634 17.0052C122.857 17.0052 123.712 16.4324 123.952 15.5017H122.936Z" fill="white"/>
<path d="M29.31 23.3457C29.3356 21.4126 30.4039 19.5834 32.0986 18.5709C31.0295 17.087 29.2388 16.1462 27.3757 16.0895C25.3886 15.8868 23.4622 17.2451 22.4496 17.2451C21.4174 17.2451 19.8584 16.1097 18.1796 16.1432C15.9913 16.2119 13.9512 17.421 12.8866 19.2803C10.598 23.131 12.3051 28.7902 14.4974 31.9028C15.5942 33.4269 16.8761 35.1294 18.5534 35.0691C20.1947 35.0029 20.8078 34.0519 22.789 34.0519C24.7519 34.0519 25.327 35.0691 27.0384 35.0307C28.7996 35.0029 29.9093 33.4997 30.9676 31.9612C31.7557 30.8751 32.3621 29.6749 32.7644 28.4048C30.6946 27.554 29.3124 25.5297 29.31 23.3457Z" fill="white"/>
<path d="M26.0775 14.0425C27.0378 12.9222 27.5109 11.4822 27.3964 10.0283C25.9292 10.1781 24.574 10.8595 23.6007 11.9369C22.649 12.9895 22.1537 14.4042 22.2473 15.8025C23.715 15.8172 25.1578 15.1542 26.0775 14.0425Z" fill="white"/>
<rect x="0.5" y="0.5" width="141" height="45" rx="6.5" stroke="white"/>
</svg>
