<svg width="50" height="50" viewBox="0 0 50 50" fill="none" xmlns="http://www.w3.org/2000/svg">
<g filter="url(#filter0_b_127_8019)">
<rect width="50" height="50" rx="25" fill="#191919" fill-opacity="0.9"/>
</g>
<path d="M18.9574 17.5429C18.5669 17.1524 17.9337 17.1524 17.5432 17.5429C17.1527 17.9334 17.1527 18.5666 17.5432 18.9571L18.9574 17.5429ZM31.0432 32.4571C31.4337 32.8476 32.0669 32.8476 32.4574 32.4571C32.8479 32.0666 32.8479 31.4334 32.4574 31.0429L31.0432 32.4571ZM28.375 23.5V22.5C27.8227 22.5 27.375 22.9477 27.375 23.5H28.375ZM31.375 23.5V24.5C31.9273 24.5 32.375 24.0523 32.375 23.5H31.375ZM31.375 20.5H32.375C32.375 20.1212 32.161 19.775 31.8222 19.6056L31.375 20.5ZM27.625 18.625L28.0722 17.7306C27.7934 17.5912 27.4656 17.5898 27.1856 17.7267C26.9057 17.8636 26.7055 18.1233 26.6444 18.4289L27.625 18.625ZM27.375 24.75C27.375 25.3023 27.8227 25.75 28.375 25.75C28.9273 25.75 29.375 25.3023 29.375 24.75H27.375ZM22 18.625L22.9285 18.2536C22.7365 17.7737 22.2105 17.5192 21.7151 17.6665C21.2196 17.8137 20.9181 18.3143 21.0194 18.8211L22 18.625ZM28.375 31.75V32.75C28.9273 32.75 29.375 32.3023 29.375 31.75H28.375ZM21.25 31.75H20.25C20.25 32.3023 20.6977 32.75 21.25 32.75V31.75ZM29.375 28.75C29.375 28.1977 28.9273 27.75 28.375 27.75C27.8227 27.75 27.375 28.1977 27.375 28.75H29.375ZM21.25 23.5H22.25C22.25 22.9477 21.8023 22.5 21.25 22.5V23.5ZM18.25 23.5H17.25C17.25 24.0523 17.6977 24.5 18.25 24.5V23.5ZM18.25 20.5L17.8028 19.6056C17.464 19.775 17.25 20.1212 17.25 20.5H18.25ZM20.1972 20.6444C20.6912 20.3974 20.8914 19.7968 20.6444 19.3028C20.3974 18.8088 19.7968 18.6086 19.3028 18.8556L20.1972 20.6444ZM24.625 21.5C25.1773 21.5 25.625 21.0523 25.625 20.5C25.625 19.9477 25.1773 19.5 24.625 19.5V21.5ZM17.5432 18.9571L31.0432 32.4571L32.4574 31.0429L18.9574 17.5429L17.5432 18.9571ZM28.375 24.5H31.375V22.5H28.375V24.5ZM32.375 23.5V20.5H30.375V23.5H32.375ZM26.6444 18.4289C26.5891 18.7056 26.2115 19.5 25 19.5V21.5C27.3885 21.5 28.4109 19.7944 28.6056 18.8211L26.6444 18.4289ZM29.375 24.75V23.5H27.375V24.75H29.375ZM25 19.5C24.4717 19.5 24.1194 19.4873 23.8099 19.3507C23.5597 19.2403 23.2247 18.9942 22.9285 18.2536L21.0715 18.9964C21.5253 20.1308 22.1903 20.8222 23.0026 21.1805C23.7556 21.5127 24.5283 21.5 25 21.5V19.5ZM28.375 30.75H21.25V32.75H28.375V30.75ZM29.375 31.75V28.75H27.375V31.75H29.375ZM22.25 31.75V23.5H20.25V31.75H22.25ZM21.25 22.5H18.25V24.5H21.25V22.5ZM19.25 23.5V20.5H17.25V23.5H19.25ZM18.6972 21.3944L20.1972 20.6444L19.3028 18.8556L17.8028 19.6056L18.6972 21.3944ZM21.0194 18.8211C21.2141 19.7944 22.2365 21.5 24.625 21.5V19.5C23.4135 19.5 23.0359 18.7056 22.9806 18.4289L21.0194 18.8211ZM31.8222 19.6056L28.0722 17.7306L27.1778 19.5194L30.9278 21.3944L31.8222 19.6056Z" fill="white"/>
<defs>
<filter id="filter0_b_127_8019" x="-18" y="-18" width="86" height="86" filterUnits="userSpaceOnUse" color-interpolation-filters="sRGB">
<feFlood flood-opacity="0" result="BackgroundImageFix"/>
<feGaussianBlur in="BackgroundImage" stdDeviation="9"/>
<feComposite in2="SourceAlpha" operator="in" result="effect1_backgroundBlur_127_8019"/>
<feBlend mode="normal" in="SourceGraphic" in2="effect1_backgroundBlur_127_8019" result="shape"/>
</filter>
</defs>
</svg>
